# xmcd
# 
# Track frame offsets:
#     150
#     80482
#     134508
#     222416
# 
# Disc length: 4464
# 
# Revision: 0
# Processed by: cddbd v1.5.2PL0 Copyright (c) Steve Scherf et al.
# Submitted via: BonkEnc v1.0.8
# 
DISCID=37116e04
DTITLE=Wilhelm Furtwangler - Symphony No. 9, Beethoven
DYEAR=0
DGENRE=
TTITLE0=Allegro ma non troppo, un poco maestoso
TTITLE1=Molto vivace - Presto
TTITLE2=Adagio molto e cantabile - Andante moderator - Adagio
TTITLE3=Presto - Allegro ma non troppo - ...
EXTD=
EXTT0=
EXTT1=
EXTT2=
EXTT3=
PLAYORDER=
